<svg width="32" height="33" viewBox="0 0 32 33" fill="none" xmlns="http://www.w3.org/2000/svg">
<g clip-path="url(#clip0)">
<path d="M25.8687 30.6457C25.8351 31.9275 24.789 32.9516 23.5066 32.9516H3.38734C2.10484 32.9516 1.05946 31.9275 1.0259 30.6457C0.75715 20.4316 2.99259 12.6295 4.0444 9.55795C4.33646 8.70514 5.13821 8.13332 6.0389 8.13332H20.855C21.7563 8.13332 22.5581 8.70507 22.8502 9.55795C23.4407 11.283 24.4047 14.4999 25.0888 18.7977C25.6225 22.1535 25.9863 26.1676 25.8687 30.6457Z" fill="#FFCE0B"/>
<path d="M25.8686 30.6457C25.8351 31.9275 24.789 32.9516 23.5066 32.9516H12.3602C11.6178 32.9516 10.942 32.5271 10.6196 31.859C9.72802 30.0118 8.13284 25.9557 8.21102 20.7069C8.22652 19.6492 9.08584 18.7977 10.1435 18.7977H25.0888C25.6225 22.1535 25.9863 26.1676 25.8686 30.6457Z" fill="#CAA308"/>
<path d="M8.08416 8.13332C7.4316 8.13332 6.85141 8.70507 6.64016 9.55795C5.87841 12.6294 4.2606 20.4316 4.4551 30.6457C4.47897 31.9275 5.23622 32.9516 6.16466 32.9516H3.3871C2.1046 32.9516 1.05922 31.9275 1.02566 30.6457C0.756912 20.4316 2.99172 12.6295 4.04354 9.55795C4.3356 8.70514 5.13735 8.13332 6.03866 8.13332H8.08416Z" fill="#CAA308"/>
<path d="M18.5141 14.1666C17.9375 14.1666 17.4701 13.6991 17.4701 13.1225V7.06294C17.4701 4.8445 15.6652 3.03969 13.4468 3.03969C11.2284 3.03969 9.42357 4.8445 9.42357 7.06294V13.1224C9.42357 13.6991 8.95613 14.1665 8.37951 14.1665C7.80289 14.1665 7.33545 13.6991 7.33545 13.1224V7.06294C7.33545 3.69312 10.0769 0.951561 13.4468 0.951561C16.8167 0.951561 19.5582 3.69312 19.5582 7.06294V13.1224C19.5582 13.6991 19.0907 14.1666 18.5141 14.1666Z" fill="#407093"/>
<path d="M18.5358 13.1224V7.06293C18.5358 4.84449 16.731 3.03968 14.5125 3.03968C14.3319 3.03968 14.1542 3.05287 13.9797 3.07606C15.947 3.33768 17.4702 5.02524 17.4702 7.06293V13.1224C17.4702 13.6991 17.9376 14.1665 18.5142 14.1665C18.7091 14.1665 18.8909 14.1121 19.047 14.0191C18.7413 13.8371 18.5358 13.5042 18.5358 13.1224Z" fill="#365E7D"/>
<path d="M8.40101 13.1224V7.06294C8.40101 3.87262 10.8584 1.24594 13.9796 0.974998C13.8039 0.959811 13.6263 0.951561 13.4468 0.951561C10.077 0.951561 7.33545 3.69312 7.33545 7.06294V13.1224C7.33545 13.6991 7.80289 14.1665 8.37951 14.1665C8.57445 14.1665 8.7562 14.1121 8.91232 14.0191C8.60657 13.8371 8.40101 13.5042 8.40101 13.1224Z" fill="#365E7D"/>
<path d="M12.5419 31.8589C11.6507 30.0119 10.0556 25.9555 10.1334 20.7068C10.149 19.6489 11.0081 18.7979 12.0661 18.7979H20.5637H29.0612C30.1192 18.7979 30.9783 19.6489 30.994 20.7068C31.0717 25.9555 29.4766 30.0119 28.5855 31.8589C28.2629 32.5272 27.5868 32.9516 26.8448 32.9516H14.2825C13.5404 32.9516 12.8644 32.5272 12.5419 31.8589Z" fill="#FFD064"/>
<path d="M16.2395 32.9514H14.2825C13.5408 32.9514 12.8643 32.5269 12.542 31.8589C11.651 30.0117 10.0558 25.9556 10.1333 20.7067C10.1488 19.6491 11.0082 18.7976 12.0665 18.7976H14.7142C13.986 18.7976 13.3942 19.6491 13.3838 20.7067C13.3302 25.9556 14.4279 30.0117 15.0417 31.8589C15.2633 32.5269 15.7292 32.9514 16.2395 32.9514Z" fill="#FFC250"/>
<path d="M20.8867 28.0955C18.5273 28.0955 16.6079 26.176 16.6079 23.8167V21.6532C16.6079 21.1901 16.9834 20.8146 17.4465 20.8146C17.9097 20.8146 18.2852 21.1901 18.2852 21.6532V23.8167C18.2852 25.2512 19.4522 26.4182 20.8867 26.4182C22.3212 26.4182 23.4883 25.2512 23.4883 23.8167V21.6532C23.4883 21.1901 23.8638 20.8146 24.3269 20.8146C24.79 20.8146 25.1655 21.1901 25.1655 21.6532V23.8167C25.1655 26.1761 23.246 28.0955 20.8867 28.0955Z" fill="#407093"/>
<path d="M21.6711 26.4182C23.1056 26.4182 24.2726 25.2512 24.2726 23.8167V21.6532C24.2726 21.3319 24.4536 21.053 24.719 20.9122C24.6019 20.8501 24.4686 20.8147 24.3268 20.8147C23.8637 20.8147 23.4882 21.1902 23.4882 21.6533V23.8167C23.4882 25.118 22.5279 26.1991 21.2788 26.3887C21.4067 26.4081 21.5377 26.4182 21.6711 26.4182Z" fill="#365E7D"/>
<path d="M17.3923 23.8167V21.6532C17.3923 21.3319 17.5733 21.053 17.8387 20.9122C17.7217 20.8501 17.5883 20.8147 17.4465 20.8147C16.9834 20.8147 16.6079 21.1902 16.6079 21.6533V23.8167C16.6079 26.1761 18.5273 28.0956 20.8867 28.0956C21.019 28.0956 21.1497 28.0886 21.2789 28.0768C19.1028 27.878 17.3923 26.0437 17.3923 23.8167Z" fill="#365E7D"/>
</g>
<defs>
<clipPath id="clip0">
<rect width="32" height="32" fill="white" transform="translate(0 0.951561)"/>
</clipPath>
</defs>
</svg>
