<svg width="16" height="17" viewBox="0 0 16 17" fill="none" xmlns="http://www.w3.org/2000/svg">
<g clip-path="url(#clip0)">
<path d="M8 16.0772C12.4183 16.0772 16 12.4954 16 8.07716C16 3.65889 12.4183 0.0771637 8 0.0771637C3.58172 0.0771637 0 3.65889 0 8.07716C0 12.4954 3.58172 16.0772 8 16.0772Z" fill="#039BE5"/>
<path d="M3.6606 7.9038L11.3739 4.9298C11.7319 4.80047 12.0446 5.01713 11.9286 5.55847L11.9293 5.5578L10.6159 11.7451C10.5186 12.1838 10.2579 12.2905 9.89326 12.0838L7.89326 10.6098L6.9286 11.5391C6.82193 11.6458 6.73193 11.7358 6.52526 11.7358L6.66726 9.70047L10.3739 6.3518C10.5353 6.2098 10.3379 6.1298 10.1253 6.27113L5.5446 9.15513L3.56993 8.53913C3.14126 8.40313 3.13193 8.11047 3.6606 7.9038Z" fill="white"/>
</g>
<defs>
<clipPath id="clip0">
<rect width="16" height="16" fill="white" transform="translate(0 0.0771637)"/>
</clipPath>
</defs>
</svg>
