<svg width="16" height="17" viewBox="0 0 16 17" fill="none" xmlns="http://www.w3.org/2000/svg">
<g clip-path="url(#clip0)">
<path d="M9.6002 0.0771637H6.39979C3.31151 0.0771637 0.799072 2.5896 0.799072 5.67788V8.07819C0.799072 10.2464 2.04951 12.2139 3.99948 13.1395V15.8125C3.99948 16.0446 4.28982 16.1659 4.45476 16.0011L6.77692 13.6789H9.60017C12.6884 13.6789 15.2009 11.1665 15.2009 8.07819V5.67788C15.2009 2.5896 12.6884 0.0771637 9.6002 0.0771637Z" fill="#665CAC"/>
<path d="M4.79957 13.1394C2.8496 12.2139 1.59917 10.2463 1.59917 8.07816V5.67785C1.59917 2.5896 4.11164 0.0771637 7.19989 0.0771637H6.39979C3.31151 0.0771637 0.799072 2.5896 0.799072 5.67788V8.07819C0.799072 10.2464 2.04951 12.2139 3.99948 13.1395V15.8125C3.99948 16.0446 4.28982 16.1659 4.45476 16.0011L4.79957 15.6563V13.1394Z" fill="#523494"/>
<path d="M12.0265 10.0178L11.7867 8.71887C11.7669 8.61156 11.6838 8.52716 11.5768 8.50575L9.69092 8.12859C9.60332 8.11116 9.51307 8.1385 9.44998 8.20153L8.68382 8.96772C7.39295 8.38931 6.67651 7.67131 6.04614 6.32503L6.80982 5.56137C6.87286 5.49831 6.90023 5.40787 6.88276 5.32044L6.50561 3.43456C6.4842 3.32759 6.39979 3.24441 6.29248 3.22459L4.99354 2.98484C4.95798 2.97831 4.92136 2.979 4.88604 2.98703C4.54307 3.06494 4.23014 3.23775 3.98104 3.48691C3.54973 3.91822 3.38489 4.54759 3.50439 5.307C3.70498 6.58219 4.32973 8.35681 5.48239 9.51409L5.49814 9.52972C6.65451 10.6816 8.42917 11.3064 9.70442 11.507C9.86507 11.5323 10.0198 11.5448 10.1682 11.5448C10.7211 11.5448 11.1844 11.3704 11.5246 11.0303C11.7737 10.7812 11.9465 10.4682 12.0244 10.1253C12.0323 10.09 12.0331 10.0534 12.0265 10.0178Z" fill="white"/>
<path d="M6.54886 5.82213L6.80961 5.56135L6.80989 5.56107L6.54883 5.8221L6.54886 5.82213Z" fill="#E5E5E5"/>
<path d="M9.44983 8.20125L9.18652 8.46455L9.18657 8.4646L9.44987 8.20129L9.44983 8.20125Z" fill="#E5E5E5"/>
<path d="M10.6709 11.0419C10.5225 11.0419 10.3678 11.0293 10.2071 11.004C8.93189 10.8034 7.15724 10.1786 6.00083 9.02675L5.98508 9.01112C4.83242 7.85384 4.20767 6.07922 4.00708 4.80403C3.91055 4.1905 3.9998 3.6619 4.26508 3.254C4.16349 3.32178 4.06814 3.39953 3.9808 3.48687C3.54949 3.91819 3.38464 4.54756 3.50414 5.30697C3.70474 6.58215 4.32949 8.35678 5.48214 9.51406L5.49789 9.52969C6.65427 10.6815 8.42892 11.3063 9.70417 11.507C9.86483 11.5323 10.0195 11.5448 10.1679 11.5448C10.7209 11.5448 11.1842 11.3704 11.5243 11.0303C11.6116 10.9429 11.6894 10.8476 11.7572 10.746C11.456 10.9419 11.0891 11.0419 10.6709 11.0419Z" fill="#E5E5E5"/>
<path d="M8.53353 4.61107C8.38625 4.61107 8.26685 4.73047 8.26685 4.87776C8.26685 5.02504 8.38625 5.14444 8.53353 5.14444C9.12178 5.14444 9.60035 5.62301 9.60035 6.21126C9.60035 6.35657 9.72172 6.47794 9.86703 6.47794C10.0123 6.47794 10.1337 6.35657 10.1337 6.21126C10.1338 5.32888 9.41591 4.61107 8.53353 4.61107Z" fill="white"/>
<path d="M8.53344 3.54424C8.43479 3.54424 8.33523 3.5497 8.23748 3.56049C8.09107 3.57664 7.98548 3.70842 8.00163 3.85486C8.01779 4.0013 8.14985 4.10661 8.29601 4.0907C8.37438 4.08205 8.45426 4.07764 8.53344 4.07764C9.70991 4.07764 10.667 5.03477 10.667 6.21124C10.667 6.29045 10.6626 6.37033 10.654 6.4487C10.638 6.59311 10.7453 6.72717 10.8898 6.74308C11.0342 6.75899 11.1682 6.6517 11.1842 6.50724C11.195 6.40949 11.2004 6.30992 11.2004 6.21124C11.2004 4.74067 10.004 3.54424 8.53344 3.54424Z" fill="white"/>
<path d="M8.53392 2.47748C8.43861 2.47748 8.34208 2.4811 8.24708 2.48832C8.1002 2.49945 7.99014 2.62757 8.00126 2.77442C8.01236 2.92129 8.14092 3.03135 8.28736 3.02023C8.36901 3.01401 8.45198 3.01088 8.53392 3.01088C10.2986 3.01088 11.7343 4.44657 11.7343 6.21129C11.7343 6.46098 11.7055 6.70954 11.6487 6.95004C11.6161 7.08785 11.701 7.2311 11.8376 7.26854C11.9814 7.30792 12.1335 7.21776 12.1678 7.07273C12.2341 6.79207 12.2677 6.50226 12.2677 6.21129C12.2677 4.15245 10.5928 2.47748 8.53392 2.47748Z" fill="white"/>
</g>
<defs>
<clipPath id="clip0">
<rect width="16" height="16" fill="white" transform="translate(0 0.0771637)"/>
</clipPath>
</defs>
</svg>
