<svg width="16" height="17" viewBox="0 0 16 17" fill="none" xmlns="http://www.w3.org/2000/svg">
<g clip-path="url(#clip0)">
<path d="M8.002 0.0771637H7.998C3.587 0.0771637 0 3.66516 0 8.07716C0 9.82716 0.564 11.4492 1.523 12.7662L0.526 15.7382L3.601 14.7552C4.866 15.5932 6.375 16.0772 8.002 16.0772C12.413 16.0772 16 12.4882 16 8.07716C16 3.66616 12.413 0.0771637 8.002 0.0771637Z" fill="#4CAF50"/>
<path d="M12.6571 11.3742C12.4641 11.9192 11.6981 12.3712 11.0871 12.5032C10.6691 12.5922 10.1231 12.6632 8.28505 11.9012C5.93405 10.9272 4.42005 8.53816 4.30205 8.38316C4.18905 8.22816 3.35205 7.11816 3.35205 5.97016C3.35205 4.82216 3.93505 4.26316 4.17005 4.02316C4.36305 3.82616 4.68205 3.73616 4.98805 3.73616C5.08705 3.73616 5.17605 3.74116 5.25605 3.74516C5.49105 3.75516 5.60905 3.76916 5.76405 4.14016C5.95705 4.60516 6.42705 5.75316 6.48305 5.87116C6.54005 5.98916 6.59705 6.14916 6.51705 6.30416C6.44205 6.46416 6.37605 6.53516 6.25805 6.67116C6.14005 6.80716 6.02805 6.91116 5.91005 7.05716C5.80205 7.18416 5.68005 7.32016 5.81605 7.55516C5.95205 7.78516 6.42205 8.55216 7.11405 9.16816C8.00705 9.96316 8.73105 10.2172 8.99005 10.3252C9.18305 10.4052 9.41305 10.3862 9.55405 10.2362C9.73305 10.0432 9.95405 9.72316 10.1791 9.40816C10.3391 9.18216 10.5411 9.15416 10.7531 9.23416C10.9691 9.30916 12.1121 9.87416 12.3471 9.99116C12.5821 10.1092 12.7371 10.1652 12.7941 10.2642C12.85 10.3632 12.85 10.8282 12.6571 11.3742Z" fill="#FAFAFA"/>
</g>
<defs>
<clipPath id="clip0">
<rect width="16" height="16" fill="white" transform="translate(0 0.0771637)"/>
</clipPath>
</defs>
</svg>
