<svg width="16" height="17" viewBox="0 0 16 17" fill="none" xmlns="http://www.w3.org/2000/svg">
<g clip-path="url(#clip0)">
<path fill-rule="evenodd" clip-rule="evenodd" d="M6.78928 0.452278C3.03966 0.452278 0 3.49193 0 7.24156C0 10.9912 3.03966 14.0308 6.78928 14.0308C10.5389 14.0308 13.5786 10.9912 13.5786 7.24156C13.5786 3.49193 10.5389 0.452278 6.78928 0.452278ZM15.7202 16.1054C15.3424 16.4899 14.721 16.4953 14.3365 16.1176L11.6227 13.4509C12.139 13.0484 12.6036 12.5829 13.0054 12.0661L15.7081 14.7218C16.0925 15.0995 16.098 15.721 15.7202 16.1054ZM6.78928 2.34259C9.49491 2.34259 11.6882 4.53593 11.6882 7.24153C11.6882 9.94712 9.49487 12.1405 6.78928 12.1405C4.08366 12.1405 1.89034 9.94712 1.89034 7.24153C1.89034 4.53593 4.08369 2.34259 6.78928 2.34259Z" fill="#7D7D7D"/>
</g>
<defs>
<clipPath id="clip0">
<rect width="16" height="16" fill="white" transform="translate(0 0.424835)"/>
</clipPath>
</defs>
</svg>
